# Blender 3.5.1
# www.blender.org
mtllib cyllinder.mtl
o Cylinder
v 0.000000 0.675479 -1.000000
v 0.000000 0.675479 1.000000
v 0.131779 0.662500 -1.000000
v 0.131779 0.662500 1.000000
v 0.258495 0.624061 -1.000000
v 0.258495 0.624061 1.000000
v 0.375276 0.561640 -1.000000
v 0.375276 0.561640 1.000000
v 0.477636 0.477636 -1.000000
v 0.477636 0.477636 1.000000
v 0.561640 0.375276 -1.000000
v 0.561640 0.375276 1.000000
v 0.624061 0.258495 -1.000000
v 0.624061 0.258495 1.000000
v 0.662500 0.131779 -1.000000
v 0.662500 0.131779 1.000000
v 0.675479 0.000000 -1.000000
v 0.675479 -0.000000 1.000000
v 0.662500 -0.131779 -1.000000
v 0.662500 -0.131779 1.000000
v 0.624061 -0.258495 -1.000000
v 0.624061 -0.258495 1.000000
v 0.561640 -0.375276 -1.000000
v 0.561640 -0.375276 1.000000
v 0.477636 -0.477636 -1.000000
v 0.477636 -0.477636 1.000000
v 0.375276 -0.561640 -1.000000
v 0.375276 -0.561640 1.000000
v 0.258495 -0.624061 -1.000000
v 0.258495 -0.624061 1.000000
v 0.131779 -0.662500 -1.000000
v 0.131779 -0.662500 1.000000
v 0.000000 -0.675479 -1.000000
v 0.000000 -0.675479 1.000000
v -0.131779 -0.662500 -1.000000
v -0.131779 -0.662500 1.000000
v -0.258495 -0.624061 -1.000000
v -0.258495 -0.624061 1.000000
v -0.375276 -0.561640 -1.000000
v -0.375276 -0.561640 1.000000
v -0.477636 -0.477636 -1.000000
v -0.477636 -0.477636 1.000000
v -0.561640 -0.375276 -1.000000
v -0.561640 -0.375276 1.000000
v -0.624061 -0.258495 -1.000000
v -0.624061 -0.258495 1.000000
v -0.662500 -0.131779 -1.000000
v -0.662500 -0.131779 1.000000
v -0.675479 0.000000 -1.000000
v -0.675479 -0.000000 1.000000
v -0.662500 0.131779 -1.000000
v -0.662500 0.131779 1.000000
v -0.624061 0.258495 -1.000000
v -0.624061 0.258495 1.000000
v -0.561640 0.375276 -1.000000
v -0.561640 0.375276 1.000000
v -0.477636 0.477636 -1.000000
v -0.477636 0.477636 1.000000
v -0.375276 0.561640 -1.000000
v -0.375276 0.561640 1.000000
v -0.258495 0.624061 -1.000000
v -0.258495 0.624061 1.000000
v -0.131779 0.662500 -1.000000
v -0.131779 0.662500 1.000000
v 0.000000 1.000000 -1.000000
v 0.195090 0.980785 -1.000000
v 0.195090 0.980785 1.000000
v 0.000000 1.000000 1.000000
v 0.382683 0.923880 -1.000000
v 0.382683 0.923879 1.000000
v 0.555570 0.831470 -1.000000
v 0.555570 0.831470 1.000000
v 0.707107 0.707107 -1.000000
v 0.707107 0.707107 1.000000
v 0.831470 0.555570 -1.000000
v 0.831470 0.555570 1.000000
v 0.923880 0.382683 -1.000000
v 0.923880 0.382683 1.000000
v 0.980785 0.195090 -1.000000
v 0.980785 0.195090 1.000000
v 1.000000 0.000000 -1.000000
v 1.000000 -0.000000 1.000000
v 0.980785 -0.195090 -1.000000
v 0.980785 -0.195090 1.000000
v 0.923880 -0.382683 -1.000000
v 0.923880 -0.382683 1.000000
v 0.831470 -0.555570 -1.000000
v 0.831470 -0.555570 1.000000
v 0.707107 -0.707107 -1.000000
v 0.707107 -0.707107 1.000000
v 0.555570 -0.831470 -1.000000
v 0.555570 -0.831470 1.000000
v 0.382683 -0.923879 -1.000000
v 0.382683 -0.923880 1.000000
v 0.195090 -0.980785 -1.000000
v 0.195090 -0.980785 1.000000
v 0.000000 -1.000000 -1.000000
v 0.000000 -1.000000 1.000000
v -0.195090 -0.980785 -1.000000
v -0.195090 -0.980785 1.000000
v -0.382683 -0.923879 -1.000000
v -0.382683 -0.923880 1.000000
v -0.555570 -0.831470 -1.000000
v -0.555570 -0.831470 1.000000
v -0.707107 -0.707107 -1.000000
v -0.707107 -0.707107 1.000000
v -0.831470 -0.555570 -1.000000
v -0.831470 -0.555570 1.000000
v -0.923880 -0.382683 -1.000000
v -0.923880 -0.382683 1.000000
v -0.980785 -0.195090 -1.000000
v -0.980785 -0.195090 1.000000
v -1.000000 0.000000 -1.000000
v -1.000000 -0.000000 1.000000
v -0.980785 0.195090 -1.000000
v -0.980785 0.195090 1.000000
v -0.923880 0.382683 -1.000000
v -0.923880 0.382683 1.000000
v -0.831470 0.555570 -1.000000
v -0.831470 0.555570 1.000000
v -0.707107 0.707107 -1.000000
v -0.707107 0.707107 1.000000
v -0.555570 0.831470 -1.000000
v -0.555570 0.831470 1.000000
v -0.382683 0.923880 -1.000000
v -0.382683 0.923879 1.000000
v -0.195090 0.980785 -1.000000
v -0.195090 0.980785 1.000000
vn 0.0980 0.9952 -0.0000
vn 0.2903 0.9569 -0.0000
vn 0.4714 0.8819 -0.0000
vn 0.6344 0.7730 -0.0000
vn 0.7730 0.6344 -0.0000
vn 0.8819 0.4714 -0.0000
vn 0.9569 0.2903 -0.0000
vn 0.9952 0.0980 -0.0000
vn 0.9952 -0.0980 -0.0000
vn 0.9569 -0.2903 -0.0000
vn 0.8819 -0.4714 -0.0000
vn 0.7730 -0.6344 -0.0000
vn 0.6344 -0.7730 -0.0000
vn 0.4714 -0.8819 -0.0000
vn 0.2903 -0.9569 -0.0000
vn 0.0980 -0.9952 -0.0000
vn -0.0980 -0.9952 -0.0000
vn -0.2903 -0.9569 -0.0000
vn -0.4714 -0.8819 -0.0000
vn -0.6344 -0.7730 -0.0000
vn -0.7730 -0.6344 -0.0000
vn -0.8819 -0.4714 -0.0000
vn -0.9569 -0.2903 -0.0000
vn -0.9952 -0.0980 -0.0000
vn -0.9952 0.0980 -0.0000
vn -0.9569 0.2903 -0.0000
vn -0.8819 0.4714 -0.0000
vn -0.7730 0.6344 -0.0000
vn -0.6344 0.7730 -0.0000
vn -0.4714 0.8819 -0.0000
vn -0.2903 0.9569 -0.0000
vn -0.0980 0.9952 -0.0000
vn -0.0000 -0.0000 -1.0000
vn -0.0000 -0.0000 1.0000
vt 0.750000 0.412115
vt 0.250000 0.412115
vt 0.781627 0.409000
vt 0.281627 0.409000
vt 0.812039 0.399775
vt 0.312039 0.399775
vt 0.840066 0.384794
vt 0.340066 0.384794
vt 0.864633 0.364633
vt 0.364633 0.364633
vt 0.884794 0.340066
vt 0.384794 0.340066
vt 0.899775 0.312039
vt 0.399775 0.312039
vt 0.909000 0.281627
vt 0.409000 0.281627
vt 0.912115 0.250000
vt 0.412115 0.250000
vt 0.909000 0.218373
vt 0.409000 0.218373
vt 0.899775 0.187961
vt 0.399775 0.187961
vt 0.884794 0.159934
vt 0.384794 0.159934
vt 0.864633 0.135367
vt 0.364633 0.135367
vt 0.840066 0.115206
vt 0.340066 0.115206
vt 0.812039 0.100225
vt 0.312039 0.100225
vt 0.781627 0.091000
vt 0.281627 0.091000
vt 0.750000 0.087885
vt 0.250000 0.087885
vt 0.718373 0.091000
vt 0.218373 0.091000
vt 0.687961 0.100225
vt 0.187961 0.100225
vt 0.659934 0.115206
vt 0.159934 0.115206
vt 0.635367 0.135367
vt 0.135367 0.135367
vt 0.615206 0.159934
vt 0.115206 0.159934
vt 0.600225 0.187961
vt 0.100225 0.187961
vt 0.591000 0.218373
vt 0.091000 0.218373
vt 0.587885 0.250000
vt 0.087885 0.250000
vt 0.591000 0.281627
vt 0.091000 0.281627
vt 0.600225 0.312039
vt 0.100225 0.312039
vt 0.615206 0.340066
vt 0.115206 0.340066
vt 0.635367 0.364633
vt 0.135367 0.364633
vt 0.659934 0.384794
vt 0.159934 0.384794
vt 0.687961 0.399775
vt 0.187961 0.399775
vt 0.718373 0.409000
vt 0.218373 0.409000
vt 1.000000 0.500000
vt 0.000000 0.500000
vt 0.750000 0.490000
vt 0.968750 0.500000
vt 0.796822 0.485388
vt 0.968750 1.000000
vt 0.296822 0.485388
vt 1.000000 1.000000
vt 0.000000 1.000000
vt 0.250000 0.490000
vt 0.937500 0.500000
vt 0.841844 0.471731
vt 0.937500 1.000000
vt 0.341844 0.471731
vt 0.906250 0.500000
vt 0.883337 0.449553
vt 0.906250 1.000000
vt 0.383337 0.449553
vt 0.875000 0.500000
vt 0.919706 0.419706
vt 0.875000 1.000000
vt 0.419706 0.419706
vt 0.843750 0.500000
vt 0.949553 0.383337
vt 0.843750 1.000000
vt 0.449553 0.383337
vt 0.812500 0.500000
vt 0.971731 0.341844
vt 0.812500 1.000000
vt 0.471731 0.341844
vt 0.781250 0.500000
vt 0.985388 0.296822
vt 0.781250 1.000000
vt 0.485388 0.296822
vt 0.750000 0.500000
vt 0.990000 0.250000
vt 0.750000 1.000000
vt 0.490000 0.250000
vt 0.718750 0.500000
vt 0.985388 0.203178
vt 0.718750 1.000000
vt 0.485388 0.203178
vt 0.687500 0.500000
vt 0.971731 0.158156
vt 0.687500 1.000000
vt 0.471731 0.158156
vt 0.656250 0.500000
vt 0.949553 0.116663
vt 0.656250 1.000000
vt 0.449553 0.116663
vt 0.625000 0.500000
vt 0.919706 0.080294
vt 0.625000 1.000000
vt 0.419706 0.080294
vt 0.593750 0.500000
vt 0.883337 0.050447
vt 0.593750 1.000000
vt 0.383337 0.050447
vt 0.562500 0.500000
vt 0.841844 0.028269
vt 0.562500 1.000000
vt 0.341844 0.028269
vt 0.531250 0.500000
vt 0.796822 0.014612
vt 0.531250 1.000000
vt 0.296822 0.014612
vt 0.500000 0.500000
vt 0.750000 0.010000
vt 0.500000 1.000000
vt 0.250000 0.010000
vt 0.468750 0.500000
vt 0.703178 0.014612
vt 0.468750 1.000000
vt 0.203178 0.014612
vt 0.437500 0.500000
vt 0.658156 0.028269
vt 0.437500 1.000000
vt 0.158156 0.028269
vt 0.406250 0.500000
vt 0.616663 0.050447
vt 0.406250 1.000000
vt 0.116663 0.050447
vt 0.375000 0.500000
vt 0.580294 0.080294
vt 0.375000 1.000000
vt 0.080294 0.080294
vt 0.343750 0.500000
vt 0.550447 0.116663
vt 0.343750 1.000000
vt 0.050447 0.116663
vt 0.312500 0.500000
vt 0.528269 0.158156
vt 0.312500 1.000000
vt 0.028269 0.158156
vt 0.281250 0.500000
vt 0.514612 0.203178
vt 0.281250 1.000000
vt 0.014612 0.203178
vt 0.250000 0.500000
vt 0.510000 0.250000
vt 0.250000 1.000000
vt 0.010000 0.250000
vt 0.218750 0.500000
vt 0.514612 0.296822
vt 0.218750 1.000000
vt 0.014612 0.296822
vt 0.187500 0.500000
vt 0.528269 0.341844
vt 0.187500 1.000000
vt 0.028269 0.341844
vt 0.156250 0.500000
vt 0.550447 0.383337
vt 0.156250 1.000000
vt 0.050447 0.383337
vt 0.125000 0.500000
vt 0.580294 0.419706
vt 0.125000 1.000000
vt 0.080294 0.419706
vt 0.093750 0.500000
vt 0.616663 0.449553
vt 0.093750 1.000000
vt 0.116663 0.449553
vt 0.062500 0.500000
vt 0.658156 0.471731
vt 0.062500 1.000000
vt 0.158156 0.471731
vt 0.031250 0.500000
vt 0.703178 0.485388
vt 0.031250 1.000000
vt 0.203178 0.485388
s 0
f 65/65/1 68/72/1 67/70/1 66/68/1
f 66/68/2 67/70/2 70/77/2 69/75/2
f 69/75/3 70/77/3 72/81/3 71/79/3
f 71/79/4 72/81/4 74/85/4 73/83/4
f 73/83/5 74/85/5 76/89/5 75/87/5
f 75/87/6 76/89/6 78/93/6 77/91/6
f 77/91/7 78/93/7 80/97/7 79/95/7
f 79/95/8 80/97/8 82/101/8 81/99/8
f 81/99/9 82/101/9 84/105/9 83/103/9
f 83/103/10 84/105/10 86/109/10 85/107/10
f 85/107/11 86/109/11 88/113/11 87/111/11
f 87/111/12 88/113/12 90/117/12 89/115/12
f 89/115/13 90/117/13 92/121/13 91/119/13
f 91/119/14 92/121/14 94/125/14 93/123/14
f 93/123/15 94/125/15 96/129/15 95/127/15
f 95/127/16 96/129/16 98/133/16 97/131/16
f 97/131/17 98/133/17 100/137/17 99/135/17
f 99/135/18 100/137/18 102/141/18 101/139/18
f 101/139/19 102/141/19 104/145/19 103/143/19
f 103/143/20 104/145/20 106/149/20 105/147/20
f 105/147/21 106/149/21 108/153/21 107/151/21
f 107/151/22 108/153/22 110/157/22 109/155/22
f 109/155/23 110/157/23 112/161/23 111/159/23
f 111/159/24 112/161/24 114/165/24 113/163/24
f 113/163/25 114/165/25 116/169/25 115/167/25
f 115/167/26 116/169/26 118/173/26 117/171/26
f 117/171/27 118/173/27 120/177/27 119/175/27
f 119/175/28 120/177/28 122/181/28 121/179/28
f 121/179/29 122/181/29 124/185/29 123/183/29
f 123/183/30 124/185/30 126/189/30 125/187/30
f 125/187/31 126/189/31 128/193/31 127/191/31
f 127/191/32 128/193/32 68/73/32 65/66/32
f 3/3/33 1/1/33 65/67/33 66/69/33
f 2/2/34 4/4/34 67/71/34 68/74/34
f 5/5/33 3/3/33 66/69/33 69/76/33
f 4/4/34 6/6/34 70/78/34 67/71/34
f 7/7/33 5/5/33 69/76/33 71/80/33
f 6/6/34 8/8/34 72/82/34 70/78/34
f 9/9/33 7/7/33 71/80/33 73/84/33
f 8/8/34 10/10/34 74/86/34 72/82/34
f 11/11/33 9/9/33 73/84/33 75/88/33
f 10/10/34 12/12/34 76/90/34 74/86/34
f 13/13/33 11/11/33 75/88/33 77/92/33
f 12/12/34 14/14/34 78/94/34 76/90/34
f 15/15/33 13/13/33 77/92/33 79/96/33
f 14/14/34 16/16/34 80/98/34 78/94/34
f 17/17/33 15/15/33 79/96/33 81/100/33
f 16/16/34 18/18/34 82/102/34 80/98/34
f 19/19/33 17/17/33 81/100/33 83/104/33
f 18/18/34 20/20/34 84/106/34 82/102/34
f 21/21/33 19/19/33 83/104/33 85/108/33
f 20/20/34 22/22/34 86/110/34 84/106/34
f 23/23/33 21/21/33 85/108/33 87/112/33
f 22/22/34 24/24/34 88/114/34 86/110/34
f 25/25/33 23/23/33 87/112/33 89/116/33
f 24/24/34 26/26/34 90/118/34 88/114/34
f 27/27/33 25/25/33 89/116/33 91/120/33
f 26/26/34 28/28/34 92/122/34 90/118/34
f 29/29/33 27/27/33 91/120/33 93/124/33
f 28/28/34 30/30/34 94/126/34 92/122/34
f 31/31/33 29/29/33 93/124/33 95/128/33
f 30/30/34 32/32/34 96/130/34 94/126/34
f 33/33/33 31/31/33 95/128/33 97/132/33
f 32/32/34 34/34/34 98/134/34 96/130/34
f 35/35/33 33/33/33 97/132/33 99/136/33
f 34/34/34 36/36/34 100/138/34 98/134/34
f 37/37/33 35/35/33 99/136/33 101/140/33
f 36/36/34 38/38/34 102/142/34 100/138/34
f 39/39/33 37/37/33 101/140/33 103/144/33
f 38/38/34 40/40/34 104/146/34 102/142/34
f 41/41/33 39/39/33 103/144/33 105/148/33
f 40/40/34 42/42/34 106/150/34 104/146/34
f 43/43/33 41/41/33 105/148/33 107/152/33
f 42/42/34 44/44/34 108/154/34 106/150/34
f 45/45/33 43/43/33 107/152/33 109/156/33
f 44/44/34 46/46/34 110/158/34 108/154/34
f 47/47/33 45/45/33 109/156/33 111/160/33
f 46/46/34 48/48/34 112/162/34 110/158/34
f 49/49/33 47/47/33 111/160/33 113/164/33
f 48/48/34 50/50/34 114/166/34 112/162/34
f 51/51/33 49/49/33 113/164/33 115/168/33
f 50/50/34 52/52/34 116/170/34 114/166/34
f 53/53/33 51/51/33 115/168/33 117/172/33
f 52/52/34 54/54/34 118/174/34 116/170/34
f 55/55/33 53/53/33 117/172/33 119/176/33
f 54/54/34 56/56/34 120/178/34 118/174/34
f 57/57/33 55/55/33 119/176/33 121/180/33
f 56/56/34 58/58/34 122/182/34 120/178/34
f 59/59/33 57/57/33 121/180/33 123/184/33
f 58/58/34 60/60/34 124/186/34 122/182/34
f 61/61/33 59/59/33 123/184/33 125/188/33
f 60/60/34 62/62/34 126/190/34 124/186/34
f 63/63/33 61/61/33 125/188/33 127/192/33
f 62/62/34 64/64/34 128/194/34 126/190/34
f 1/1/33 63/63/33 127/192/33 65/67/33
f 64/64/34 2/2/34 68/74/34 128/194/34
f 2/2/16 64/64/16 63/63/16 1/1/16
f 64/64/15 62/62/15 61/61/15 63/63/15
f 62/62/14 60/60/14 59/59/14 61/61/14
f 60/60/13 58/58/13 57/57/13 59/59/13
f 58/58/12 56/56/12 55/55/12 57/57/12
f 56/56/11 54/54/11 53/53/11 55/55/11
f 54/54/10 52/52/10 51/51/10 53/53/10
f 52/52/9 50/50/9 49/49/9 51/51/9
f 50/50/8 48/48/8 47/47/8 49/49/8
f 48/48/7 46/46/7 45/45/7 47/47/7
f 46/46/6 44/44/6 43/43/6 45/45/6
f 44/44/5 42/42/5 41/41/5 43/43/5
f 42/42/4 40/40/4 39/39/4 41/41/4
f 40/40/3 38/38/3 37/37/3 39/39/3
f 38/38/2 36/36/2 35/35/2 37/37/2
f 36/36/1 34/34/1 33/33/1 35/35/1
f 34/34/32 32/32/32 31/31/32 33/33/32
f 32/32/31 30/30/31 29/29/31 31/31/31
f 30/30/30 28/28/30 27/27/30 29/29/30
f 28/28/29 26/26/29 25/25/29 27/27/29
f 26/26/28 24/24/28 23/23/28 25/25/28
f 24/24/27 22/22/27 21/21/27 23/23/27
f 22/22/26 20/20/26 19/19/26 21/21/26
f 20/20/25 18/18/25 17/17/25 19/19/25
f 18/18/24 16/16/24 15/15/24 17/17/24
f 16/16/23 14/14/23 13/13/23 15/15/23
f 14/14/22 12/12/22 11/11/22 13/13/22
f 12/12/21 10/10/21 9/9/21 11/11/21
f 10/10/20 8/8/20 7/7/20 9/9/20
f 8/8/19 6/6/19 5/5/19 7/7/19
f 6/6/18 4/4/18 3/3/18 5/5/18
f 4/4/17 2/2/17 1/1/17 3/3/17
