# Blender 3.5.1
# www.blender.org
mtllib HalfPipe.mtl
o Cylinder
v 0.675479 0.000000 -1.000000
v 0.675479 -0.000000 1.000000
v 0.662500 -0.131779 -1.000000
v 0.662500 -0.131779 1.000000
v 0.624061 -0.258495 -1.000000
v 0.624061 -0.258495 1.000000
v 0.561640 -0.375276 -1.000000
v 0.561640 -0.375276 1.000000
v 0.477636 -0.477636 -1.000000
v 0.477636 -0.477636 1.000000
v 0.375276 -0.561640 -1.000000
v 0.375276 -0.561640 1.000000
v 0.258495 -0.624061 -1.000000
v 0.258495 -0.624061 1.000000
v 0.131779 -0.662500 -1.000000
v 0.131779 -0.662500 1.000000
v 0.000000 -0.675479 -1.000000
v 0.000000 -0.675479 1.000000
v -0.131779 -0.662500 -1.000000
v -0.131779 -0.662500 1.000000
v -0.258495 -0.624061 -1.000000
v -0.258495 -0.624061 1.000000
v -0.375276 -0.561640 -1.000000
v -0.375276 -0.561640 1.000000
v -0.477636 -0.477636 -1.000000
v -0.477636 -0.477636 1.000000
v -0.561640 -0.375276 -1.000000
v -0.561640 -0.375276 1.000000
v -0.624061 -0.258495 -1.000000
v -0.624061 -0.258495 1.000000
v -0.662500 -0.131779 -1.000000
v -0.662500 -0.131779 1.000000
v -0.675479 0.000000 -1.000000
v -0.675479 -0.000000 1.000000
v 1.000000 0.000000 -1.000000
v 1.000000 -0.000000 1.000000
v 0.980785 -0.195090 -1.000000
v 0.980785 -0.195090 1.000000
v 0.923880 -0.382683 -1.000000
v 0.923880 -0.382683 1.000000
v 0.831470 -0.555570 -1.000000
v 0.831470 -0.555570 1.000000
v 0.707107 -0.707107 -1.000000
v 0.707107 -0.707107 1.000000
v 0.555570 -0.831470 -1.000000
v 0.555570 -0.831470 1.000000
v 0.382683 -0.923879 -1.000000
v 0.382683 -0.923880 1.000000
v 0.195090 -0.980785 -1.000000
v 0.195090 -0.980785 1.000000
v 0.000000 -1.000000 -1.000000
v 0.000000 -1.000000 1.000000
v -0.195090 -0.980785 -1.000000
v -0.195090 -0.980785 1.000000
v -0.382683 -0.923879 -1.000000
v -0.382683 -0.923880 1.000000
v -0.555570 -0.831470 -1.000000
v -0.555570 -0.831470 1.000000
v -0.707107 -0.707107 -1.000000
v -0.707107 -0.707107 1.000000
v -0.831470 -0.555570 -1.000000
v -0.831470 -0.555570 1.000000
v -0.923880 -0.382683 -1.000000
v -0.923880 -0.382683 1.000000
v -0.980785 -0.195090 -1.000000
v -0.980785 -0.195090 1.000000
v -1.000000 0.000000 -1.000000
v -1.000000 -0.000000 1.000000
vn 0.9952 -0.0980 -0.0000
vn 0.9569 -0.2903 -0.0000
vn 0.8819 -0.4714 -0.0000
vn 0.7730 -0.6344 -0.0000
vn 0.6344 -0.7730 -0.0000
vn 0.4714 -0.8819 -0.0000
vn 0.2903 -0.9569 -0.0000
vn 0.0980 -0.9952 -0.0000
vn -0.0980 -0.9952 -0.0000
vn -0.2903 -0.9569 -0.0000
vn -0.4714 -0.8819 -0.0000
vn -0.6344 -0.7730 -0.0000
vn -0.7730 -0.6344 -0.0000
vn -0.8819 -0.4714 -0.0000
vn -0.9569 -0.2903 -0.0000
vn -0.9952 -0.0980 -0.0000
vn -0.0000 -0.0000 -1.0000
vn -0.0000 -0.0000 1.0000
vn 0.9952 0.0980 -0.0000
vn 0.9569 0.2903 -0.0000
vn 0.8819 0.4714 -0.0000
vn 0.7730 0.6344 -0.0000
vn 0.6344 0.7730 -0.0000
vn 0.4714 0.8819 -0.0000
vn 0.2903 0.9569 -0.0000
vn 0.0980 0.9952 -0.0000
vn -0.0980 0.9952 -0.0000
vn -0.2903 0.9569 -0.0000
vn -0.4714 0.8819 -0.0000
vn -0.6344 0.7730 -0.0000
vn -0.7730 0.6344 -0.0000
vn -0.8819 0.4714 -0.0000
vn -0.9569 0.2903 -0.0000
vn -0.9952 0.0980 -0.0000
vn -0.0000 1.0000 -0.0000
vt 0.912115 0.250000
vt 0.334435 0.500000
vt 0.412115 0.250000
vt 0.334435 0.500000
vt 0.909000 0.218373
vt 0.409000 0.218373
vt 0.899775 0.187961
vt 0.399775 0.187961
vt 0.884794 0.159934
vt 0.384794 0.159934
vt 0.864633 0.135367
vt 0.364633 0.135367
vt 0.840066 0.115206
vt 0.340066 0.115206
vt 0.812039 0.100225
vt 0.312039 0.100225
vt 0.781627 0.091000
vt 0.281627 0.091000
vt 0.750000 0.087885
vt 0.250000 0.087885
vt 0.718373 0.091000
vt 0.218373 0.091000
vt 0.687961 0.100225
vt 0.187961 0.100225
vt 0.659934 0.115206
vt 0.159934 0.115206
vt 0.635367 0.135367
vt 0.135367 0.135367
vt 0.615206 0.159934
vt 0.115206 0.159934
vt 0.600225 0.187961
vt 0.100225 0.187961
vt 0.591000 0.218373
vt 0.091000 0.218373
vt 0.587885 0.250000
vt 0.165565 0.500000
vt 0.087885 0.250000
vt 0.165565 0.500000
vt 0.750000 0.500000
vt 0.990000 0.250000
vt 0.375000 0.500000
vt 0.750000 1.000000
vt 0.490000 0.250000
vt 0.375000 0.500000
vt 0.718750 0.500000
vt 0.985388 0.203178
vt 0.718750 1.000000
vt 0.485388 0.203178
vt 0.687500 0.500000
vt 0.971731 0.158156
vt 0.687500 1.000000
vt 0.471731 0.158156
vt 0.656250 0.500000
vt 0.949553 0.116663
vt 0.656250 1.000000
vt 0.449553 0.116663
vt 0.625000 0.500000
vt 0.919706 0.080294
vt 0.625000 1.000000
vt 0.419706 0.080294
vt 0.593750 0.500000
vt 0.883337 0.050447
vt 0.593750 1.000000
vt 0.383337 0.050447
vt 0.562500 0.500000
vt 0.841844 0.028269
vt 0.562500 1.000000
vt 0.341844 0.028269
vt 0.531250 0.500000
vt 0.796822 0.014612
vt 0.531250 1.000000
vt 0.296822 0.014612
vt 0.500000 0.500000
vt 0.750000 0.010000
vt 0.500000 1.000000
vt 0.250000 0.010000
vt 0.468750 0.500000
vt 0.703178 0.014612
vt 0.468750 1.000000
vt 0.203178 0.014612
vt 0.437500 0.500000
vt 0.658156 0.028269
vt 0.437500 1.000000
vt 0.158156 0.028269
vt 0.406250 0.500000
vt 0.616663 0.050447
vt 0.406250 1.000000
vt 0.116663 0.050447
vt 0.375000 0.500000
vt 0.580294 0.080294
vt 0.375000 1.000000
vt 0.080294 0.080294
vt 0.343750 0.500000
vt 0.550447 0.116663
vt 0.343750 1.000000
vt 0.050447 0.116663
vt 0.312500 0.500000
vt 0.528269 0.158156
vt 0.312500 1.000000
vt 0.028269 0.158156
vt 0.281250 0.500000
vt 0.514612 0.203178
vt 0.281250 1.000000
vt 0.014612 0.203178
vt 0.250000 0.500000
vt 0.510000 0.250000
vt 0.125000 0.750000
vt 0.250000 1.000000
vt 0.010000 0.250000
vt 0.125000 0.750000
s 0
f 35/39/1 36/42/1 38/47/1 37/45/1
f 37/45/2 38/47/2 40/51/2 39/49/2
f 39/49/3 40/51/3 42/55/3 41/53/3
f 41/53/4 42/55/4 44/59/4 43/57/4
f 43/57/5 44/59/5 46/63/5 45/61/5
f 45/61/6 46/63/6 48/67/6 47/65/6
f 47/65/7 48/67/7 50/71/7 49/69/7
f 49/69/8 50/71/8 52/75/8 51/73/8
f 51/73/9 52/75/9 54/79/9 53/77/9
f 53/77/10 54/79/10 56/83/10 55/81/10
f 55/81/11 56/83/11 58/87/11 57/85/11
f 57/85/12 58/87/12 60/91/12 59/89/12
f 59/89/13 60/91/13 62/95/13 61/93/13
f 61/93/14 62/95/14 64/99/14 63/97/14
f 63/97/15 64/99/15 66/103/15 65/101/15
f 65/101/16 66/103/16 68/108/16 67/105/16
f 3/5/17 1/1/17 35/40/17 37/46/17
f 2/3/18 4/6/18 38/48/18 36/43/18
f 5/7/17 3/5/17 37/46/17 39/50/17
f 4/6/18 6/8/18 40/52/18 38/48/18
f 7/9/17 5/7/17 39/50/17 41/54/17
f 6/8/18 8/10/18 42/56/18 40/52/18
f 9/11/17 7/9/17 41/54/17 43/58/17
f 8/10/18 10/12/18 44/60/18 42/56/18
f 11/13/17 9/11/17 43/58/17 45/62/17
f 10/12/18 12/14/18 46/64/18 44/60/18
f 13/15/17 11/13/17 45/62/17 47/66/17
f 12/14/18 14/16/18 48/68/18 46/64/18
f 15/17/17 13/15/17 47/66/17 49/70/17
f 14/16/18 16/18/18 50/72/18 48/68/18
f 17/19/17 15/17/17 49/70/17 51/74/17
f 16/18/18 18/20/18 52/76/18 50/72/18
f 19/21/17 17/19/17 51/74/17 53/78/17
f 18/20/18 20/22/18 54/80/18 52/76/18
f 21/23/17 19/21/17 53/78/17 55/82/17
f 20/22/18 22/24/18 56/84/18 54/80/18
f 23/25/17 21/23/17 55/82/17 57/86/17
f 22/24/18 24/26/18 58/88/18 56/84/18
f 25/27/17 23/25/17 57/86/17 59/90/17
f 24/26/18 26/28/18 60/92/18 58/88/18
f 27/29/17 25/27/17 59/90/17 61/94/17
f 26/28/18 28/30/18 62/96/18 60/92/18
f 29/31/17 27/29/17 61/94/17 63/98/17
f 28/30/18 30/32/18 64/100/18 62/96/18
f 31/33/17 29/31/17 63/98/17 65/102/17
f 30/32/18 32/34/18 66/104/18 64/100/18
f 33/35/17 31/33/17 65/102/17 67/106/17
f 32/34/18 34/37/18 68/109/18 66/104/18
f 32/34/19 31/33/19 33/35/19 34/37/19
f 32/34/20 30/32/20 29/31/20 31/33/20
f 30/32/21 28/30/21 27/29/21 29/31/21
f 28/30/22 26/28/22 25/27/22 27/29/22
f 26/28/23 24/26/23 23/25/23 25/27/23
f 24/26/24 22/24/24 21/23/24 23/25/24
f 22/24/25 20/22/25 19/21/25 21/23/25
f 20/22/26 18/20/26 17/19/26 19/21/26
f 18/20/27 16/18/27 15/17/27 17/19/27
f 16/18/28 14/16/28 13/15/28 15/17/28
f 14/16/29 12/14/29 11/13/29 13/15/29
f 12/14/30 10/12/30 9/11/30 11/13/30
f 10/12/31 8/10/31 7/9/31 9/11/31
f 8/10/32 6/8/32 5/7/32 7/9/32
f 6/8/33 4/6/33 3/5/33 5/7/33
f 4/6/34 2/3/34 1/1/34 3/5/34
f 33/36/35 67/107/35 68/110/35 34/38/35
f 36/44/35 35/41/35 1/2/35 2/4/35
