# Blender 3.5.1
# www.blender.org
mtllib obstacle1.mtl
o Cube
v 10.000000 2.000000 -1.000000
v 10.000000 -2.000000 -1.000000
v 10.000000 2.000000 1.000000
v 10.000000 -2.000000 1.000000
v -10.000000 2.000000 -1.000000
v -10.000000 -2.000000 -1.000000
v -10.000000 2.000000 1.000000
v -10.000000 -2.000000 1.000000
v -1.000000 -1.036138 1.000000
v -0.980785 -1.231228 1.000000
v -0.980785 -0.841048 1.000000
v -0.831470 -1.591708 1.000000
v -0.923880 -1.418822 1.000000
v -0.923880 -0.653455 1.000000
v -0.831470 -0.480568 1.000000
v -0.195090 -0.055353 1.000000
v -0.250879 -2.000000 1.000000
v -0.382683 -1.960018 1.000000
v -0.555570 -1.867608 1.000000
v -0.707107 -1.743245 1.000000
v -0.707107 -0.329031 1.000000
v -0.555570 -0.204668 1.000000
v -0.382683 -0.112259 1.000000
v 0.195090 -0.055353 1.000000
v 1.000000 -1.036138 1.000000
v 0.980785 -1.231228 1.000000
v 0.980785 -0.841048 1.000000
v 0.831470 -1.591708 1.000000
v 0.923880 -1.418822 1.000000
v 0.923880 -0.653455 1.000000
v 0.831470 -0.480568 1.000000
v 0.250879 -2.000000 1.000000
v 0.382683 -1.960018 1.000000
v 0.555570 -1.867608 1.000000
v 0.707107 -1.743245 1.000000
v 0.707107 -0.329031 1.000000
v 0.555570 -0.204668 1.000000
v 0.382683 -0.112259 1.000000
v 0.000000 -0.036138 1.000000
v -0.250879 -2.000000 -1.000000
v 0.250879 -2.000000 -1.000000
v -1.000000 -1.036138 -1.000000
v -0.980785 -1.231228 -1.000000
v -0.980785 -0.841048 -1.000000
v -0.831470 -1.591708 -1.000000
v -0.923880 -1.418822 -1.000000
v -0.923880 -0.653455 -1.000000
v -0.831470 -0.480568 -1.000000
v -0.195090 -0.055353 -1.000000
v -0.382683 -1.960018 -1.000000
v -0.555570 -1.867608 -1.000000
v -0.707107 -1.743245 -1.000000
v -0.707107 -0.329031 -1.000000
v -0.555570 -0.204668 -1.000000
v -0.382683 -0.112259 -1.000000
v 0.195090 -0.055353 -1.000000
v 1.000000 -1.036138 -1.000000
v 0.980785 -1.231228 -1.000000
v 0.980785 -0.841048 -1.000000
v 0.831470 -1.591708 -1.000000
v 0.923880 -1.418822 -1.000000
v 0.923880 -0.653455 -1.000000
v 0.831470 -0.480568 -1.000000
v 0.382683 -1.960018 -1.000000
v 0.555570 -1.867608 -1.000000
v 0.707107 -1.743245 -1.000000
v 0.707107 -0.329031 -1.000000
v 0.555570 -0.204668 -1.000000
v 0.382683 -0.112259 -1.000000
v 0.000000 -0.036138 -1.000000
vn -0.0000 1.0000 -0.0000
vn -0.0000 -0.0000 1.0000
vn -1.0000 -0.0000 -0.0000
vn -0.0000 -1.0000 -0.0000
vn 1.0000 -0.0000 -0.0000
vn -0.0000 -0.0000 -1.0000
vn -0.0980 -0.9952 -0.0000
vn -0.2903 -0.9569 -0.0000
vn -0.4714 -0.8819 -0.0000
vn -0.6344 -0.7730 -0.0000
vn -0.7730 -0.6344 -0.0000
vn -0.8819 -0.4714 -0.0000
vn -0.9569 -0.2903 -0.0000
vn -0.9952 -0.0980 -0.0000
vn -0.9952 0.0980 -0.0000
vn -0.9569 0.2903 -0.0000
vn -0.8819 0.4714 -0.0000
vn -0.7730 0.6344 -0.0000
vn -0.6344 0.7730 -0.0000
vn -0.4714 0.8819 -0.0000
vn -0.2903 0.9569 -0.0000
vn 0.2903 0.9569 -0.0000
vn 0.4714 0.8819 -0.0000
vn 0.6344 0.7730 -0.0000
vn 0.7730 0.6344 -0.0000
vn 0.8819 0.4714 -0.0000
vn 0.9569 0.2903 -0.0000
vn 0.9952 0.0980 -0.0000
vn 0.9952 -0.0980 -0.0000
vn 0.9569 -0.2903 -0.0000
vn 0.8819 -0.4714 -0.0000
vn 0.7730 -0.6344 -0.0000
vn 0.6344 -0.7730 -0.0000
vn 0.4714 -0.8819 -0.0000
vn 0.2903 -0.9569 -0.0000
vn 0.0980 -0.9952 -0.0000
vt 0.625000 0.500000
vt 0.375000 0.500000
vt 0.625000 0.750000
vt 0.375000 0.750000
vt 0.875000 0.500000
vt 0.625000 0.250000
vt 0.125000 0.500000
vt 0.375000 0.250000
vt 0.875000 0.750000
vt 0.625000 1.000000
vt 0.625000 0.000000
vt 0.375000 1.000000
vt 0.375000 0.000000
vt 0.125000 0.750000
vt 0.435241 0.887500
vt 0.250000 0.780998
vt 0.423048 0.887260
vt 0.281250 0.780998
vt 0.447435 0.887260
vt 0.218750 0.780998
vt 0.400518 0.885393
vt 0.343750 0.780998
vt 0.411324 0.886549
vt 0.312500 0.780998
vt 0.459159 0.886548
vt 0.187500 0.780998
vt 0.469964 0.885393
vt 0.156250 0.780998
vt 0.496540 0.877439
vt 0.031250 0.780998
vt 0.375000 0.878136
vt 0.246864 0.750000
vt 0.459457 0.780998
vt 0.377499 0.879783
vt 0.437500 0.780998
vt 0.383275 0.881945
vt 0.406250 0.780998
vt 0.391047 0.883839
vt 0.375000 0.780998
vt 0.479436 0.883839
vt 0.125000 0.780998
vt 0.487208 0.881945
vt 0.093750 0.780998
vt 0.492984 0.879784
vt 0.062500 0.780998
vt 0.496540 0.872561
vt 0.968750 0.780998
vt 0.435241 0.862500
vt 0.750000 0.780998
vt 0.423048 0.862740
vt 0.718750 0.780998
vt 0.447435 0.862740
vt 0.781250 0.780998
vt 0.400518 0.864607
vt 0.656250 0.780998
vt 0.411324 0.863452
vt 0.687500 0.780998
vt 0.459159 0.863451
vt 0.812500 0.780998
vt 0.469965 0.864607
vt 0.843750 0.780998
vt 0.375000 0.871864
vt 0.253136 0.750000
vt 0.540544 0.780998
vt 0.377499 0.870216
vt 0.562500 0.780998
vt 0.383274 0.868055
vt 0.593750 0.780998
vt 0.391047 0.866161
vt 0.625000 0.780998
vt 0.479436 0.866161
vt 0.875000 0.780998
vt 0.487208 0.868055
vt 0.906250 0.780998
vt 0.492984 0.870216
vt 0.937500 0.780998
vt 0.497741 0.875000
vt 1.000000 0.780998
vt 0.000000 0.780998
vt 0.246864 0.500000
vt 0.375000 0.371864
vt 0.459456 0.702292
vt 0.253136 0.500000
vt 0.375000 0.378136
vt 0.540544 0.702292
vt 0.435241 0.362500
vt 0.250000 0.702292
vt 0.423048 0.362740
vt 0.281250 0.702292
vt 0.447435 0.362740
vt 0.218750 0.702292
vt 0.400518 0.364607
vt 0.343750 0.702292
vt 0.411324 0.363452
vt 0.312500 0.702292
vt 0.459159 0.363452
vt 0.187500 0.702292
vt 0.469965 0.364607
vt 0.156250 0.702292
vt 0.496540 0.372561
vt 0.031250 0.702292
vt 0.377499 0.370216
vt 0.437500 0.702292
vt 0.383274 0.368055
vt 0.406250 0.702292
vt 0.391047 0.366161
vt 0.375000 0.702292
vt 0.479436 0.366161
vt 0.125000 0.702292
vt 0.487208 0.368055
vt 0.093750 0.702292
vt 0.492984 0.370216
vt 0.062500 0.702292
vt 0.496540 0.377439
vt 0.968750 0.702292
vt 0.435241 0.387500
vt 0.750000 0.702292
vt 0.423048 0.387260
vt 0.718750 0.702292
vt 0.447435 0.387260
vt 0.781250 0.702292
vt 0.400518 0.385393
vt 0.656250 0.702292
vt 0.411324 0.386549
vt 0.687500 0.702292
vt 0.459159 0.386548
vt 0.812500 0.702292
vt 0.469964 0.385393
vt 0.843750 0.702292
vt 0.377499 0.379784
vt 0.562500 0.702292
vt 0.383275 0.381945
vt 0.593750 0.702292
vt 0.391047 0.383839
vt 0.625000 0.702292
vt 0.479436 0.383839
vt 0.875000 0.702292
vt 0.487208 0.381945
vt 0.906250 0.702292
vt 0.492984 0.379784
vt 0.937500 0.702292
vt 0.497741 0.375000
vt 1.000000 0.702292
vt 0.000000 0.702292
s 0
usemtl Material
f 1/1/1 5/5/1 7/9/1 3/3/1
f 32/62/2 4/4/2 3/3/2 7/10/2 8/12/2 17/31/2 18/34/2 19/36/2 20/38/2 12/21/2 13/23/2 10/17/2 9/15/2 11/19/2 14/25/2 15/27/2 21/40/2 22/42/2 23/44/2 16/29/2 39/77/2 24/46/2 38/75/2 37/73/2 36/71/2 31/60/2 30/58/2 27/52/2 25/48/2 26/50/2 29/56/2 28/54/2 35/69/2 34/67/2 33/65/2
f 8/13/3 7/11/3 5/6/3 6/8/3
f 41/83/4 2/2/4 4/4/4 32/63/4
f 8/14/4 6/7/4 40/80/4 17/32/4
f 2/2/5 1/1/5 3/3/5 4/4/5
f 40/81/6 6/8/6 5/6/6 1/1/6 2/2/6 41/84/6 64/130/6 65/132/6 66/134/6 60/122/6 61/124/6 58/118/6 57/116/6 59/120/6 62/126/6 63/128/6 67/136/6 68/138/6 69/140/6 56/114/6 70/142/6 49/100/6 55/112/6 54/110/6 53/108/6 48/98/6 47/96/6 44/90/6 42/86/6 43/88/6 46/94/6 45/92/6 52/106/6 51/104/6 50/102/6
f 24/47/7 39/78/7 70/143/7 56/115/7
f 24/47/8 56/115/8 69/141/8 38/76/8
f 38/76/9 69/141/9 68/139/9 37/74/9
f 37/74/10 68/139/10 67/137/10 36/72/10
f 36/72/11 67/137/11 63/129/11 31/61/11
f 31/61/12 63/129/12 62/127/12 30/59/12
f 30/59/13 62/127/13 59/121/13 27/53/13
f 27/53/14 59/121/14 57/117/14 25/49/14
f 25/49/15 57/117/15 58/119/15 26/51/15
f 26/51/16 58/119/16 61/125/16 29/57/16
f 29/57/17 61/125/17 60/123/17 28/55/17
f 28/55/18 60/123/18 66/135/18 35/70/18
f 35/70/19 66/135/19 65/133/19 34/68/19
f 34/68/20 65/133/20 64/131/20 33/66/20
f 32/64/21 33/66/21 64/131/21 41/85/21
f 18/35/22 17/33/22 40/82/22 50/103/22
f 19/37/23 18/35/23 50/103/23 51/105/23
f 20/39/24 19/37/24 51/105/24 52/107/24
f 12/22/25 20/39/25 52/107/25 45/93/25
f 13/24/26 12/22/26 45/93/26 46/95/26
f 10/18/27 13/24/27 46/95/27 43/89/27
f 9/16/28 10/18/28 43/89/28 42/87/28
f 11/20/29 9/16/29 42/87/29 44/91/29
f 14/26/30 11/20/30 44/91/30 47/97/30
f 15/28/31 14/26/31 47/97/31 48/99/31
f 21/41/32 15/28/32 48/99/32 53/109/32
f 22/43/33 21/41/33 53/109/33 54/111/33
f 23/45/34 22/43/34 54/111/34 55/113/34
f 16/30/35 23/45/35 55/113/35 49/101/35
f 39/79/36 16/30/36 49/101/36 70/144/36
